<svg width="159" height="57" viewBox="0 0 159 57" fill="none" xmlns="http://www.w3.org/2000/svg">
<path d="M130.054 0.498291C129.18 0.498291 128.32 0.537118 127.466 0.612344H69.5489H9.66177C4.42971 0.612344 0.1875 5.4511 0.1875 11.4207V45.8598C0.1875 51.8294 4.42971 56.6682 9.66177 56.6682H67.914L128.017 56.9108C128.543 56.9108 129.059 56.8599 129.563 56.7652C129.726 56.7677 129.89 56.7725 130.054 56.7725C146.04 56.7725 159 44.1757 159 28.6354C159 13.0951 146.04 0.498291 130.054 0.498291Z" fill="#152C41"/>
<path d="M19.4791 39.965L19.1918 41.3938H16.0469L15.8721 42.2674H19.0171L18.7298 43.6962H15.5848L15.348 44.8959H18.4929L18.2056 46.3247H12.0633L13.3368 39.965H19.4791ZM24.4916 39.965H27.4851L26.2116 46.3247H23.2181L22.2668 43.1448L21.6301 46.3247H18.6327L19.9062 39.965H22.9036L23.8548 43.1448L24.4916 39.965ZM34.0545 39.965L33.7672 41.3938H30.6222L30.4475 42.2674H33.5925L33.3051 43.6962H30.1602L29.9234 44.8959H33.0683L32.781 46.3247H26.6387L27.9122 39.965H34.0545ZM40.2085 39.965C40.5372 39.965 40.796 40.0827 40.985 40.3183C41.1222 40.4943 41.1908 40.6949 41.1908 40.9201C41.1908 40.9977 41.183 41.0793 41.1675 41.1647L40.8607 42.7022C40.7727 43.1371 40.523 43.4736 40.1114 43.7117C40.3366 43.8877 40.4492 44.1336 40.4492 44.4494V44.5115C40.4388 44.7186 40.4246 44.9283 40.4065 45.1405C40.3909 45.3528 40.378 45.5624 40.3676 45.7695C40.3573 45.8161 40.3521 45.8614 40.3521 45.9054C40.3521 46.0788 40.4349 46.2043 40.6006 46.282L40.5812 46.3247H37.8129C37.6576 46.3247 37.5372 46.2704 37.4518 46.1616C37.3897 46.0814 37.3586 45.9895 37.3586 45.886C37.3586 45.8471 37.3625 45.807 37.3703 45.7656L37.5333 44.3679C37.5385 44.3368 37.5411 44.3083 37.5411 44.2824C37.5411 44.1918 37.5139 44.1116 37.4596 44.0417C37.3845 43.9511 37.2835 43.9045 37.1567 43.9019H36.6908L36.2055 46.3247H33.2081L34.4816 39.965H40.2085ZM37.6576 41.3938H37.1917L36.9742 42.477H37.4401C37.567 42.477 37.686 42.4317 37.7973 42.3411C37.9086 42.2505 37.9772 42.1405 38.0031 42.0111L38.0342 41.8597C38.042 41.826 38.0458 41.795 38.0458 41.7665C38.0458 41.6785 38.0174 41.5995 37.9604 41.5297C37.8854 41.4391 37.7844 41.3938 37.6576 41.3938ZM43.4932 39.965H48.0203C48.349 39.965 48.6079 40.0827 48.7968 40.3183C48.934 40.4943 49.0026 40.6949 49.0026 40.9201C49.0026 40.9977 48.9949 41.0793 48.9793 41.1647L48.7852 42.1392H45.7878L45.8422 41.8597C45.8499 41.826 45.8538 41.7937 45.8538 41.7626C45.8538 41.6772 45.8266 41.5995 45.7723 41.5297C45.6972 41.4391 45.5963 41.3938 45.4694 41.3938C45.34 41.3938 45.2209 41.4404 45.1122 41.5335C45.0035 41.6241 44.9362 41.7328 44.9103 41.8597L44.3978 44.43C44.3901 44.4636 44.3862 44.496 44.3862 44.527C44.3862 44.6151 44.4133 44.6927 44.4677 44.76C44.5402 44.8506 44.6411 44.8959 44.7706 44.8959C44.8974 44.8959 45.0152 44.8506 45.1239 44.76C45.2352 44.6694 45.3038 44.5594 45.3296 44.43L45.384 44.1504H44.9181L45.12 43.1448H48.5833L48.1873 45.125C48.12 45.4563 47.9452 45.7397 47.6631 45.9753C47.381 46.2082 47.0755 46.3247 46.7468 46.3247H42.2197C41.8883 46.3247 41.6295 46.2069 41.4431 45.9714C41.3034 45.8006 41.2335 45.6025 41.2335 45.3773C41.2335 45.2971 41.2425 45.213 41.2607 45.125L42.0527 41.1647C42.1174 40.836 42.2908 40.5538 42.573 40.3183C42.8551 40.0827 43.1618 39.965 43.4932 39.965ZM53.4638 46.3247H50.4664L51.0488 43.405L49.4297 39.965H52.2446L53.0755 41.7432L54.6247 39.965H56.5505L54.1937 42.6673L53.4638 46.3247Z" fill="white"/>
<path d="M14.8394 17.8403H23.3337C23.9341 17.8403 24.4054 18.0514 24.7503 18.4713C24.9983 18.777 25.1298 19.1556 25.1249 19.5463C25.1249 19.6919 25.11 19.8399 25.0827 19.9831L24.7279 21.723H19.1436L19.2453 21.2158C19.2726 21.1066 19.2751 20.9925 19.2503 20.8833C19.2379 20.8178 19.2056 20.7572 19.1684 20.7038C18.9848 20.4514 18.769 20.364 18.5556 20.3737C18.3125 20.3762 18.0768 20.4635 17.8957 20.6237C17.7047 20.7742 17.5732 20.9828 17.5211 21.2182L16.5735 25.8701C16.5586 25.9284 16.5511 25.9866 16.5511 26.0448C16.5486 26.1977 16.6032 26.3482 16.7025 26.4671C16.8389 26.6321 17.0473 26.7243 17.2631 26.7122C17.5062 26.7098 17.7394 26.6224 17.9205 26.4671C18.114 26.3191 18.248 26.1055 18.2976 25.8701L18.3993 25.363H23.9589L23.6041 27.1029C23.4776 27.7023 23.1377 28.2385 22.6465 28.6171C22.1851 29.0151 21.5897 29.2383 20.9744 29.2456H12.5074C11.8996 29.2456 11.4257 29.0345 11.0834 28.6123C10.8303 28.3138 10.6939 27.9352 10.6989 27.547C10.6989 27.3941 10.7162 27.2436 10.7485 27.0932L12.1998 19.9903C12.3238 19.391 12.6637 18.8522 13.1549 18.4737C13.6188 18.0709 14.2167 17.8452 14.8394 17.8403Z" fill="white"/>
<path d="M30.6328 17.8401H35.515L37.388 29.2454H31.764L31.5631 28.0321H28.2065L27.5466 29.2454H24.0834L30.6328 17.8401ZM31.2753 25.6054L30.8635 23.135L29.5164 25.6054H31.2753Z" fill="white"/>
<path d="M42.317 17.8401H50.7741C51.3745 17.8401 51.8458 18.0512 52.1907 18.471C52.4387 18.7768 52.5702 19.1553 52.5653 19.546C52.5653 19.6916 52.5504 19.8396 52.5231 19.9828L52.1683 21.7227H46.6237L46.7229 21.2204C46.7378 21.1622 46.7452 21.1039 46.7452 21.0457C46.7477 20.6817 46.4475 20.3832 46.0754 20.3832C46.063 20.3832 46.0506 20.3832 46.0382 20.3832C45.7926 20.3832 45.5569 20.473 45.3758 20.6307C45.1873 20.7788 45.0558 20.9874 45.0062 21.2204L44.9268 21.5893C44.9218 21.6232 44.9194 21.6597 44.9194 21.6936C44.9119 21.8489 45.026 21.9848 45.1823 22.0066L50.6674 23.2758C51.2628 23.4141 51.5605 23.7538 51.5605 24.295C51.558 24.4212 51.5456 24.5474 51.5159 24.6711L51.0247 27.0857C50.8957 27.6875 50.5558 28.2286 50.0621 28.6096C49.5957 29.01 48.9978 29.2357 48.3776 29.2405H39.9205C39.3152 29.2405 38.8438 29.0294 38.5039 28.6096C38.2509 28.3111 38.1169 27.935 38.1219 27.5492C38.1219 27.3987 38.1393 27.2458 38.1715 27.0978L38.5263 25.3579H44.0808L43.9816 25.8602C43.9667 25.9184 43.9618 25.9767 43.9593 26.0349C43.9568 26.1878 44.0114 26.3358 44.1081 26.4523C44.2446 26.6173 44.4554 26.7071 44.6713 26.6974C44.9119 26.695 45.1426 26.6076 45.3237 26.4523C45.5172 26.3043 45.6487 26.0931 45.6983 25.8602L45.7703 25.4986C45.7802 25.4622 45.7827 25.4234 45.7852 25.387C45.7901 25.2317 45.6735 25.0958 45.5148 25.0812L40.0346 23.8048C39.4343 23.6689 39.1366 23.3292 39.1366 22.7856C39.1366 22.6594 39.1514 22.5332 39.1787 22.4095L39.6699 19.995C39.7965 19.3932 40.1338 18.8544 40.625 18.4734C41.0914 18.0706 41.6943 17.8449 42.317 17.8401Z" fill="white"/>
<path d="M56.0266 17.8401H64.4837C65.0841 17.8401 65.5554 18.0512 65.9003 18.471C66.1483 18.7768 66.2798 19.1553 66.2749 19.546C66.2749 19.6916 66.26 19.8396 66.2327 19.9828L65.8779 21.7227H60.3308L60.43 21.2204C60.4449 21.1573 60.4524 21.0894 60.4499 21.0239C60.4424 20.6987 60.172 20.4148 59.8396 20.3857C59.8074 20.3832 59.7751 20.3808 59.7429 20.3832C59.4973 20.3832 59.2616 20.473 59.0805 20.6307C58.8919 20.7788 58.7605 20.9874 58.7108 21.2204L58.6314 21.5893C58.6265 21.6232 58.624 21.6597 58.624 21.6936C58.6166 21.8489 58.7307 21.9848 58.887 22.0066L64.3746 23.2758C64.97 23.4141 65.2652 23.7538 65.2652 24.295C65.2652 24.4212 65.2503 24.5474 65.223 24.6711L64.7318 27.0857C64.6028 27.6875 64.2629 28.2286 63.7692 28.6096C63.3028 29.01 62.705 29.2357 62.0848 29.2405H53.6276C53.0223 29.2405 52.5509 29.0294 52.2111 28.6096C51.958 28.3111 51.8216 27.935 51.829 27.5492C51.829 27.3987 51.8464 27.2458 51.8786 27.0978L52.2334 25.3579H57.788L57.6887 25.8602C57.6738 25.9184 57.6689 25.9767 57.6664 26.0349C57.6639 26.1878 57.716 26.3358 57.8153 26.4523C57.9517 26.6173 58.1626 26.7071 58.3784 26.6974C58.619 26.695 58.8498 26.6076 59.0309 26.4523C59.2244 26.3043 59.3558 26.0931 59.4055 25.8602L59.4774 25.4986C59.4873 25.4622 59.4898 25.4234 59.4923 25.387C59.4973 25.2317 59.3807 25.0958 59.2219 25.0812L53.7417 23.8048C53.1414 23.6689 52.8437 23.3292 52.8437 22.7856C52.8462 22.6594 52.8586 22.5332 52.8883 22.4095L53.3795 19.995C53.5061 19.3932 53.8435 18.8544 54.3347 18.4734C54.8035 18.0706 55.4014 17.8449 56.0266 17.8401Z" fill="white"/>
<path d="M67.4877 17.8401H73.0993L70.7153 29.488H65.1036L67.4877 17.8401Z" fill="white"/>
<path d="M84.8758 17.8396C85.491 17.8396 85.9748 18.0555 86.3295 18.4875C86.5826 18.8005 86.719 19.1888 86.7141 19.5892C86.7141 19.7397 86.6992 19.8901 86.6719 20.0357L85.1884 27.289C85.0569 27.9029 84.7096 28.4538 84.2059 28.842C83.7321 29.2522 83.1218 29.4803 82.4892 29.4851H71.7671L74.1512 17.8372L84.8758 17.8396ZM77.9419 26.8182H78.8002C79.0409 26.8158 79.2741 26.7284 79.4552 26.5731C79.6487 26.4251 79.7826 26.214 79.8298 25.9786L80.775 21.3485C80.7899 21.2903 80.7973 21.2321 80.7973 21.1738C80.7998 20.8098 80.4996 20.5113 80.125 20.5089C80.1126 20.5089 80.1002 20.5089 80.0878 20.5089H79.2294L77.9419 26.8182Z" fill="white"/>
<path d="M94.4174 29.488H88.8058L89.8974 24.1397L86.8658 17.8401H92.1351L93.6905 21.0966L96.5906 17.8401H100.195L95.7819 22.788L94.4174 29.488Z" fill="white"/>
<path d="M106.568 12.0151H13.4182C11.5278 12.0151 9.99463 13.5367 9.99463 15.4125H103.993C104.675 14.1676 105.536 13.0246 106.568 12.0151Z" fill="#DB4F29"/>
<path d="M122.991 44.2826C116.608 40.0238 113.033 33.746 112.907 27.8687C111.974 29.0432 111.396 30.3657 111.17 31.761C111.11 32.1153 111.148 32.5497 111.098 32.8967L111.158 32.54C111.118 32.7972 111.091 33.0569 111.076 33.3214C110.999 34.6682 111.242 36.0999 111.773 37.5437C111.88 37.8325 111.996 38.1213 112.128 38.4125C113.455 41.3827 115.99 44.3335 119.523 46.6316C124.517 49.8712 131.064 51.5213 136.727 51.3296C138.901 51.2568 140.942 50.9146 142.716 50.2837C142.964 50.1963 143.21 50.1065 143.448 50.0071C143.629 49.7862 143.818 49.5654 144.004 49.3324C136.951 50.0338 129.067 48.3278 122.991 44.2826Z" fill="url(#paint0_linear_1189_1120)"/>
<path d="M150.771 21.2021C150.687 21.0735 150.352 20.4959 150.133 20.3018C150.007 20.1902 149.997 20.229 149.967 20.3527C150.074 22.612 149.868 24.8032 149.364 26.8708C148.779 29.1737 147.819 31.3164 146.504 33.2092C144.837 35.2282 142.738 36.922 140.242 38.1571C137.074 39.7272 133.517 40.3703 129.949 40.1858C126.3 39.999 122.638 38.9482 119.366 37.1404L118.982 37.9703C119.155 38.1523 119.337 38.3294 119.518 38.5066C126.357 45.1484 137.533 47.7983 145.266 44.5029C147.424 43.5759 149.208 42.2995 150.595 40.7658C152.051 39.1545 153.068 37.2617 153.619 35.199C154.763 30.933 153.899 25.9365 150.771 21.2021Z" fill="url(#paint1_linear_1189_1120)"/>
<path d="M136.522 13.7281C142.518 18.4747 145.579 25.0412 145.262 30.9526C146.274 29.8436 146.946 28.5574 147.278 27.1742C147.365 26.8248 147.36 26.3832 147.437 26.0386L147.35 26.3904C147.41 26.1356 147.455 25.876 147.489 25.6115C147.665 24.2647 147.534 22.8087 147.12 21.3187C147.038 21.0202 146.941 20.7218 146.834 20.4208C145.745 17.3414 143.46 14.1892 140.136 11.6218C135.437 8.00121 129.077 5.8609 123.455 5.63279C121.299 5.54543 119.25 5.73957 117.444 6.23946C117.191 6.3074 116.94 6.38263 116.697 6.46513C116.499 6.6714 116.298 6.88253 116.097 7.10093C123.133 6.92135 130.811 9.21697 136.522 13.7281Z" fill="url(#paint2_linear_1189_1120)"/>
<path d="M139.912 19.4508C133.702 12.2606 122.861 8.73469 114.923 11.4428C112.672 12.2169 110.775 13.3842 109.259 14.8474C108.274 15.7987 107.453 16.8713 106.803 18.0434C106.433 18.7083 106.118 19.4071 105.863 20.1303C104.372 24.326 104.803 29.4074 107.497 34.3966C107.569 34.5301 107.855 35.1367 108.053 35.3479C108.17 35.4692 108.182 35.4328 108.222 35.309C108.309 33.0352 108.698 30.8513 109.37 28.8177C110.147 26.5512 111.278 24.4764 112.742 22.6807C114.565 20.7855 116.786 19.247 119.361 18.2011C122.63 16.8713 126.208 16.5 129.726 16.9611C133.325 17.4318 136.861 18.7689 139.947 20.834L140.398 20.0332C140.239 19.8342 140.076 19.6425 139.912 19.4508Z" fill="url(#paint3_linear_1189_1120)"/>
<path d="M98.2569 33.3694H10.1975C10.1975 34.8448 11.8994 36.0387 14.0006 36.0387H98.1452C98.0336 35.1506 98.0708 34.2551 98.2569 33.3694Z" fill="#DB4F29"/>
<defs>
<linearGradient id="paint0_linear_1189_1120" x1="111.062" y1="39.6063" x2="144" y2="39.6063" gradientUnits="userSpaceOnUse">
<stop stop-color="#F7CA18"/>
<stop offset="1" stop-color="#F89406"/>
</linearGradient>
<linearGradient id="paint1_linear_1189_1120" x1="118.982" y1="33.0795" x2="154.103" y2="33.0795" gradientUnits="userSpaceOnUse">
<stop stop-color="#F7CA18"/>
<stop offset="1" stop-color="#F89406"/>
</linearGradient>
<linearGradient id="paint2_linear_1189_1120" x1="116.096" y1="18.2846" x2="147.563" y2="18.2846" gradientUnits="userSpaceOnUse">
<stop stop-color="#F7CA18"/>
<stop offset="1" stop-color="#F89406"/>
</linearGradient>
<linearGradient id="paint3_linear_1189_1120" x1="105.012" y1="22.9782" x2="140.397" y2="22.9782" gradientUnits="userSpaceOnUse">
<stop stop-color="#F7CA18"/>
<stop offset="1" stop-color="#F89406"/>
</linearGradient>
</defs>
</svg>
