<svg width="20" height="18" viewBox="0 0 20 18" fill="none" xmlns="http://www.w3.org/2000/svg">
<path fill-rule="evenodd" clip-rule="evenodd" d="M0 15.7147C0 15.3358 0.15051 14.9725 0.418419 14.7046C0.686328 14.4366 1.04969 14.2861 1.42857 14.2861H18.5714C18.9503 14.2861 19.3137 14.4366 19.5816 14.7046C19.8495 14.9725 20 15.3358 20 15.7147C20 16.0936 19.8495 16.4569 19.5816 16.7249C19.3137 16.9928 18.9503 17.1433 18.5714 17.1433H1.42857C1.04969 17.1433 0.686328 16.9928 0.418419 16.7249C0.15051 16.4569 0 16.0936 0 15.7147Z" fill="#152C41"/>
<path fill-rule="evenodd" clip-rule="evenodd" d="M0 8.57115C0 8.19227 0.15051 7.82891 0.418419 7.561C0.686328 7.29309 1.04969 7.14258 1.42857 7.14258H18.5714C18.9503 7.14258 19.3137 7.29309 19.5816 7.561C19.8495 7.82891 20 8.19227 20 8.57115C20 8.95003 19.8495 9.31339 19.5816 9.5813C19.3137 9.84921 18.9503 9.99972 18.5714 9.99972H1.42857C1.04969 9.99972 0.686328 9.84921 0.418419 9.5813C0.15051 9.31339 0 8.95003 0 8.57115Z" fill="#152C41"/>
<path fill-rule="evenodd" clip-rule="evenodd" d="M0 1.42857C0 1.04969 0.15051 0.686328 0.418419 0.418419C0.686328 0.15051 1.04969 0 1.42857 0H18.5714C18.9503 0 19.3137 0.15051 19.5816 0.418419C19.8495 0.686328 20 1.04969 20 1.42857C20 1.80745 19.8495 2.17081 19.5816 2.43872C19.3137 2.70663 18.9503 2.85714 18.5714 2.85714H1.42857C1.04969 2.85714 0.686328 2.70663 0.418419 2.43872C0.15051 2.17081 0 1.80745 0 1.42857Z" fill="#152C41"/>
</svg>
